# xmcd
#
# Track frame offsets:
#   150
#   13290
#   27968
#   40483
#   54056
#   67899
#   81490
#   93848
#   107319
#   120941
#
# Disc length: 1798 seconds
#
# Revision: 0
# Processed by: cddbd v1.5.1PL2 Copyright (c) Steve Scherf et al.
# Submitted via: uFREEDB 1.6.0
#
DISCID=6f07040a
DTITLE=John Lee Hooker - John Lee Hooker
DYEAR=1900
DGENRE=Blues
TTITLE0=Devil's Jump
TTITLE1=Don't Go Baby
TTITLE2=Don't You Remember Me?
TTITLE3=Heart Trouble Blues
TTITLE4=I'm Gonna Kill That Woman
TTITLE5=Late Last Night
TTITLE6=Moaning Blues
TTITLE7=Nightmare Blues
TTITLE8=Sim's Stomp
TTITLE9=The Numbers
EXTD=
EXTT0=
EXTT1=
EXTT2=
EXTT3=
EXTT4=
EXTT5=
EXTT6=
EXTT7=
EXTT8=
EXTT9=
PLAYORDER=
